# xmcd
#
# Track frame offsets: 
#        150
#        22585
#        42790
#        60510
#        75412
#        91502
#        108802
#        129067
#        151860
#        173262
#
# Disc length: 2622 seconds
#
# Revision: 2
# Processed by: cddbd v1.5.2PL0 Copyright (c) Steve Scherf et al.
# Submitted via: ExactAudioCopy v1.0b3
#
DISCID=4d0a3c0a
DTITLE=Diane Schuur and B.B. King - Heart To Heart
DYEAR=1994
DGENRE=Blues
TTITLE0=No One Ever Tells You
TTITLE1=I Can't Stop Loving You
TTITLE2=You Don't Know Me
TTITLE3=It Had to Be You
TTITLE4=I'm Putting All My Eggs in One Basket
TTITLE5=Glory of Love
TTITLE6=Try a Little Tenderness
TTITLE7=Sprit in the Dark
TTITLE8=Freedom
TTITLE9=At Last
EXTD=1994
EXTT0=
EXTT1=
EXTT2=
EXTT3=
EXTT4=
EXTT5=
EXTT6=
EXTT7=
EXTT8=
EXTT9=
PLAYORDER=
